<svg width="98" height="94" viewBox="0 0 98 94" fill="none" xmlns="http://www.w3.org/2000/svg">
<path d="M95.1432 15.2256L50.045 0.192886C49.2735 -0.0642952 48.4394 -0.0642952 47.6679 0.192886L2.56966 15.2256C1.82133 15.4751 1.17047 15.9537 0.70928 16.5936C0.248086 17.2336 -5.84505e-05 18.0024 1.03273e-08 18.7912V56.3731C1.03273e-08 57.3698 0.395951 58.3257 1.10075 59.0305C1.80554 59.7353 2.76145 60.1313 3.75819 60.1313C4.75492 60.1313 5.71083 59.7353 6.41563 59.0305C7.12042 58.3257 7.51637 57.3698 7.51637 56.3731V24.0057L23.2961 29.2625C19.1036 36.0357 17.7704 44.1958 19.5892 51.9511C21.4081 59.7064 26.2302 66.423 32.9969 70.626C24.541 73.9426 17.2313 79.9416 11.8853 88.1439C11.6072 88.5571 11.4141 89.0215 11.3171 89.51C11.2201 89.9985 11.2212 90.5014 11.3203 90.9895C11.4194 91.4776 11.6145 91.9412 11.8944 92.3532C12.1742 92.7652 12.5331 93.1175 12.9503 93.3896C13.3674 93.6617 13.8345 93.8482 14.3244 93.9382C14.8142 94.0281 15.3171 94.0199 15.8037 93.9138C16.2904 93.8077 16.7511 93.606 17.159 93.3203C17.567 93.0346 17.9141 92.6707 18.1802 92.2497C25.2597 81.3885 36.4403 75.164 48.8564 75.164C61.2725 75.164 72.4532 81.3885 79.5326 92.2497C80.0839 93.0689 80.9353 93.6383 81.903 93.8348C82.8707 94.0312 83.8768 93.839 84.7039 93.2995C85.5309 92.7601 86.1124 91.9169 86.3227 90.9521C86.533 89.9873 86.3551 88.9785 85.8276 88.1439C80.4816 79.9416 73.1437 73.9426 64.716 70.626C71.4762 66.4232 76.2937 59.711 78.1123 51.9613C79.9308 44.2117 78.6018 36.0572 74.4168 29.2859L95.1432 22.3803C95.8917 22.131 96.5427 21.6524 97.0041 21.0125C97.4654 20.3725 97.7137 19.6036 97.7137 18.8147C97.7137 18.0258 97.4654 17.2569 97.0041 16.6169C96.5427 15.977 95.8917 15.4984 95.1432 15.2491V15.2256ZM71.4056 45.0985C71.4066 48.6634 70.5623 52.1778 68.9421 55.3532C67.3219 58.5287 64.9719 61.2747 62.0849 63.3661C59.1979 65.4574 55.8562 66.8345 52.334 67.3843C48.8117 67.9341 45.2093 67.6409 41.8223 66.5288C38.4353 65.4168 35.3602 63.5175 32.8493 60.9868C30.3385 58.4562 28.4634 55.3663 27.378 51.9707C26.2925 48.575 26.0277 44.9704 26.6051 41.4526C27.1825 37.9348 28.5857 34.604 30.6997 31.7335L47.6679 37.3708C48.4394 37.6279 49.2735 37.6279 50.045 37.3708L67.0132 31.7335C69.8681 35.6045 71.4075 40.2886 71.4056 45.0985ZM48.8564 29.8638L15.6435 18.7912L48.8564 7.71866L82.0694 18.7912L48.8564 29.8638Z" fill="white"/>
</svg>
